<svg width="20" height="18" viewBox="0 0 20 18" fill="none" xmlns="http://www.w3.org/2000/svg">
<path d="M20 2.40391C18.7419 2.46767 18.7694 2.46247 18.6272 2.47556L19.3723 0.135726C19.3723 0.135726 17.0465 1.07652 16.4569 1.24482C14.9084 -0.285594 12.6068 -0.353214 10.9613 0.758898C9.6138 1.66983 8.89053 3.23413 9.13177 5.06254C6.50925 4.66236 4.29962 3.29538 2.55508 0.990951L2.00333 0.26224L1.59103 1.09481C1.06995 2.14686 0.896912 3.34974 1.10367 4.48182C1.18851 4.94626 1.3327 5.38923 1.53244 5.804L1.05911 5.60232L1.00296 6.47198C0.946045 7.35539 1.21353 8.38663 1.7186 9.23027C1.86081 9.46786 2.04391 9.72878 2.276 9.98617L2.0314 9.94489L2.32986 10.9414C2.72217 12.2507 3.53699 13.2636 4.59442 13.8267C3.53836 14.3195 2.68524 14.6339 1.28296 15.1412L0 15.6049L1.185 16.3174C1.63681 16.589 3.23334 17.4963 4.81079 17.7684C8.31726 18.3731 12.2652 17.8807 14.9229 15.2486C17.1616 13.0316 17.8961 9.87794 17.7435 6.59614C17.7205 6.09931 17.8442 5.62514 18.092 5.2612C18.5884 4.53249 19.9969 2.40878 20 2.40391ZM17.155 4.48937C16.7435 5.09358 16.5373 5.86525 16.5742 6.66191C16.7282 9.97224 15.9091 12.5394 14.1396 14.2918C12.0724 16.339 8.73825 17.1426 4.99222 16.4964C4.31381 16.3795 3.61267 16.1175 3.03238 15.856C4.20807 15.4111 5.11597 15.0147 6.58218 14.2516L8.629 13.1863L6.36917 13.0272C5.28671 12.951 4.38538 12.3742 3.83133 11.4375C4.12552 11.4188 4.40918 11.3664 4.69162 11.2798L6.84692 10.6197L4.67361 10.0345C3.61755 9.75009 3.01559 9.05527 2.69653 8.52237C2.48703 8.17219 2.35016 7.81346 2.26807 7.48274C2.48596 7.54701 2.74002 7.59281 3.14972 7.63744L5.16129 7.85624L3.5675 6.48909C2.41913 5.50416 1.95892 4.02442 2.2963 2.6019C5.88028 6.6896 10.0883 6.38238 10.5119 6.49043C10.4187 5.4946 10.4163 5.49225 10.3918 5.39745C9.8494 3.28883 11.0382 2.21817 11.5744 1.85574C12.6944 1.09884 14.4722 0.984743 15.7036 2.23176C15.9695 2.50089 16.3292 2.60677 16.6658 2.51482C16.9679 2.43227 17.2159 2.34485 17.4586 2.24971L16.9533 3.83667L17.5984 3.83717C17.4767 4.01671 17.3306 4.23165 17.155 4.48937Z" fill="white"/>
</svg>
